<svg width="209" height="136" viewBox="0 0 209 136" fill="none" xmlns="http://www.w3.org/2000/svg">
<circle cx="123" cy="24" r="24" fill="#2E7527"/>
<path fill-rule="evenodd" clip-rule="evenodd" d="M119.985 17.0383C119.899 16.437 119.383 15.9929 118.776 16L118.77 16L116.212 16C116.211 16.0001 116.204 16.0005 116.185 16.0025C116.183 16.0026 116.182 16.0028 116.181 16.0029C116.162 16.0048 116.127 16.0083 116.087 16.0096C115.43 16.0736 114.946 16.6558 115.008 17.31C115.28 19.8705 116.153 22.3244 117.549 24.4779L117.552 24.4817C118.823 26.4797 120.52 28.177 122.527 29.4475L122.532 29.4505C124.685 30.8472 127.141 31.7114 129.695 31.993C129.707 31.9944 129.72 31.9963 129.732 31.9986C129.734 31.9988 129.738 31.999 129.743 31.9993C129.757 31.9999 129.773 32 129.8 32C130.46 32 131 31.4577 131 30.79V28.2185C131.014 27.6011 130.569 27.0831 129.967 27.006L129.964 27.0056C129.107 26.8906 128.27 26.6815 127.456 26.3787L127.449 26.3763C127.014 26.2078 126.514 26.3135 126.184 26.6435L126.182 26.6452L125.092 27.7252C124.933 27.8831 124.687 27.9155 124.492 27.8044C122.275 26.5405 120.441 24.7164 119.176 22.4976C119.064 22.3012 119.097 22.054 119.258 21.8948L120.345 20.8178C120.667 20.487 120.774 19.9828 120.611 19.5442M119.985 17.0383C120.1 17.8947 120.309 18.7303 120.611 19.5442L119.985 17.0383ZM118.767 15C119.878 14.9886 120.82 15.8033 120.975 16.9001L120.976 16.9035C121.081 17.6865 121.272 18.4504 121.549 19.1958C121.846 19.996 121.654 20.9105 121.057 21.5197L121.052 21.5252L120.238 22.3313C121.338 24.1369 122.854 25.6443 124.662 26.7437L125.476 25.9364C125.477 25.9362 125.477 25.936 125.477 25.9357C126.086 25.3272 127.004 25.1329 127.807 25.4424C128.551 25.7188 129.314 25.9093 130.095 26.0142C131.209 26.1576 132.023 27.1159 132 28.2354V30.79C132 32.0023 131.02 33 129.8 33C129.798 33 129.795 33 129.792 33C129.751 33.0001 129.661 33.0004 129.569 32.9851C126.87 32.685 124.272 31.7703 121.99 30.291C119.859 28.942 118.058 27.1405 116.709 25.0202C115.227 22.7349 114.301 20.1305 114.013 17.4127L114.012 17.4077C113.895 16.1877 114.803 15.1151 116.018 15.0118M118.767 15H116.21C116.159 15 116.112 15.0048 116.089 15.0071C116.088 15.0072 116.087 15.0073 116.085 15.0075C116.065 15.0095 116.059 15.0099 116.058 15.01" fill="white"/>
<path d="M94.8457 64V52.3636H96.2547V58.1364H96.3911L101.618 52.3636H103.459L98.5729 57.6136L103.459 64H101.755L97.7093 58.5909L96.2547 60.2273V64H94.8457ZM107.686 64.1818C106.898 64.1818 106.207 63.9943 105.612 63.6193C105.021 63.2443 104.559 62.7197 104.226 62.0455C103.896 61.3712 103.732 60.5833 103.732 59.6818C103.732 58.7727 103.896 57.9792 104.226 57.3011C104.559 56.6231 105.021 56.0966 105.612 55.7216C106.207 55.3466 106.898 55.1591 107.686 55.1591C108.474 55.1591 109.163 55.3466 109.754 55.7216C110.349 56.0966 110.811 56.6231 111.141 57.3011C111.474 57.9792 111.641 58.7727 111.641 59.6818C111.641 60.5833 111.474 61.3712 111.141 62.0455C110.811 62.7197 110.349 63.2443 109.754 63.6193C109.163 63.9943 108.474 64.1818 107.686 64.1818ZM107.686 62.9773C108.285 62.9773 108.777 62.8239 109.163 62.517C109.55 62.2102 109.836 61.8068 110.021 61.3068C110.207 60.8068 110.3 60.2652 110.3 59.6818C110.3 59.0985 110.207 58.5549 110.021 58.0511C109.836 57.5473 109.55 57.1402 109.163 56.8295C108.777 56.5189 108.285 56.3636 107.686 56.3636C107.088 56.3636 106.595 56.5189 106.209 56.8295C105.823 57.1402 105.537 57.5473 105.351 58.0511C105.165 58.5549 105.073 59.0985 105.073 59.6818C105.073 60.2652 105.165 60.8068 105.351 61.3068C105.537 61.8068 105.823 62.2102 106.209 62.517C106.595 62.8239 107.088 62.9773 107.686 62.9773ZM114.708 58.75V64H113.368V55.2727H114.663V56.6364H114.777C114.981 56.1932 115.292 55.8371 115.708 55.5682C116.125 55.2955 116.663 55.1591 117.322 55.1591C117.913 55.1591 118.43 55.2803 118.873 55.5227C119.316 55.7614 119.661 56.125 119.907 56.6136C120.154 57.0985 120.277 57.7121 120.277 58.4545V64H118.936V58.5455C118.936 57.8598 118.758 57.3258 118.402 56.9432C118.046 56.5568 117.557 56.3636 116.936 56.3636C116.508 56.3636 116.125 56.4564 115.788 56.642C115.455 56.8277 115.191 57.0985 114.998 57.4545C114.805 57.8106 114.708 58.2424 114.708 58.75ZM126.202 55.2727V56.4091H121.68V55.2727H126.202ZM122.998 53.1818H124.339V61.5C124.339 61.8788 124.394 62.1629 124.504 62.3523C124.617 62.5379 124.761 62.6629 124.935 62.7273C125.113 62.7879 125.301 62.8182 125.498 62.8182C125.646 62.8182 125.767 62.8106 125.862 62.7955C125.956 62.7765 126.032 62.7614 126.089 62.75L126.362 63.9545C126.271 63.9886 126.144 64.0227 125.981 64.0568C125.818 64.0947 125.612 64.1136 125.362 64.1136C124.983 64.1136 124.612 64.0322 124.248 63.8693C123.888 63.7064 123.589 63.4583 123.35 63.125C123.115 62.7917 122.998 62.3712 122.998 61.8636V53.1818ZM130.468 64.2045C129.915 64.2045 129.413 64.1004 128.962 63.892C128.511 63.6799 128.153 63.375 127.888 62.9773C127.623 62.5758 127.49 62.0909 127.49 61.5227C127.49 61.0227 127.589 60.6174 127.786 60.3068C127.983 59.9924 128.246 59.7462 128.576 59.5682C128.905 59.3902 129.269 59.2576 129.667 59.1705C130.068 59.0795 130.471 59.0076 130.877 58.9545C131.407 58.8864 131.837 58.8352 132.167 58.8011C132.5 58.7633 132.742 58.7008 132.894 58.6136C133.049 58.5265 133.127 58.375 133.127 58.1591V58.1136C133.127 57.553 132.973 57.1174 132.667 56.8068C132.363 56.4962 131.903 56.3409 131.286 56.3409C130.646 56.3409 130.144 56.4811 129.78 56.7614C129.417 57.0417 129.161 57.3409 129.013 57.6591L127.74 57.2045C127.968 56.6742 128.271 56.2614 128.649 55.9659C129.032 55.6667 129.449 55.4583 129.899 55.3409C130.354 55.2197 130.801 55.1591 131.24 55.1591C131.521 55.1591 131.843 55.1932 132.206 55.2614C132.574 55.3258 132.928 55.4602 133.269 55.6648C133.613 55.8693 133.899 56.178 134.127 56.5909C134.354 57.0038 134.468 57.5568 134.468 58.25V64H133.127V62.8182H133.059C132.968 63.0076 132.816 63.2102 132.604 63.4261C132.392 63.642 132.11 63.8258 131.757 63.9773C131.405 64.1288 130.975 64.2045 130.468 64.2045ZM130.672 63C131.202 63 131.649 62.8958 132.013 62.6875C132.381 62.4792 132.657 62.2102 132.843 61.8807C133.032 61.5511 133.127 61.2045 133.127 60.8409V59.6136C133.07 59.6818 132.945 59.7443 132.752 59.8011C132.562 59.8542 132.343 59.9015 132.093 59.9432C131.846 59.9811 131.606 60.0152 131.371 60.0455C131.14 60.072 130.952 60.0947 130.809 60.1136C130.46 60.1591 130.134 60.233 129.831 60.3352C129.532 60.4337 129.29 60.5833 129.104 60.7841C128.922 60.9811 128.831 61.25 128.831 61.5909C128.831 62.0568 129.004 62.4091 129.348 62.6477C129.697 62.8826 130.138 63 130.672 63ZM137.845 60.8182L137.822 59.1591H138.095L141.913 55.2727H143.572L139.504 59.3864H139.391L137.845 60.8182ZM136.595 64V52.3636H137.936V64H136.595ZM142.141 64L138.731 59.6818L139.686 58.75L143.845 64H142.141ZM148.774 55.2727V56.4091H144.251V55.2727H148.774ZM145.569 53.1818H146.91V61.5C146.91 61.8788 146.965 62.1629 147.075 62.3523C147.188 62.5379 147.332 62.6629 147.507 62.7273C147.685 62.7879 147.872 62.8182 148.069 62.8182C148.217 62.8182 148.338 62.8106 148.433 62.7955C148.527 62.7765 148.603 62.7614 148.66 62.75L148.933 63.9545C148.842 63.9886 148.715 64.0227 148.552 64.0568C148.389 64.0947 148.183 64.1136 147.933 64.1136C147.554 64.1136 147.183 64.0322 146.819 63.8693C146.459 63.7064 146.16 63.4583 145.921 63.125C145.687 62.7917 145.569 62.3712 145.569 61.8636V53.1818Z" fill="black"/>
</svg>
