<svg width="111" height="111" viewBox="0 0 111 111" fill="none" xmlns="http://www.w3.org/2000/svg">
<path fill-rule="evenodd" clip-rule="evenodd" d="M30.0625 50.875C28.7959 50.875 27.75 51.9209 27.75 53.1875V94.8125C27.75 96.0791 28.7959 97.125 30.0625 97.125H80.9375C82.2041 97.125 83.25 96.0791 83.25 94.8125V53.1875C83.25 51.9209 82.2041 50.875 80.9375 50.875H30.0625ZM23.125 53.1875C23.125 49.3666 26.2416 46.25 30.0625 46.25H80.9375C84.7584 46.25 87.875 49.3666 87.875 53.1875V94.8125C87.875 98.6334 84.7584 101.75 80.9375 101.75H30.0625C26.2416 101.75 23.125 98.6334 23.125 94.8125V53.1875Z" fill="white"/>
<path fill-rule="evenodd" clip-rule="evenodd" d="M55.5 13.875C45.1961 13.875 37 21.8279 37 31.3575V48.5625C37 49.8397 35.9647 50.875 34.6875 50.875C33.4103 50.875 32.375 49.8397 32.375 48.5625V31.3575C32.375 19.0571 42.8639 9.25 55.5 9.25C68.0864 9.25 78.625 19.0538 78.625 31.3575V48.5625C78.625 49.8397 77.5897 50.875 76.3125 50.875C75.0353 50.875 74 49.8397 74 48.5625V31.3575C74 21.8312 65.7611 13.875 55.5 13.875Z" fill="white"/>
<path fill-rule="evenodd" clip-rule="evenodd" d="M55.5 69.375C52.9457 69.375 50.875 71.4457 50.875 74C50.875 76.5543 52.9457 78.625 55.5 78.625C58.0543 78.625 60.125 76.5543 60.125 74C60.125 71.4457 58.0543 69.375 55.5 69.375ZM46.25 74C46.25 68.8914 50.3914 64.75 55.5 64.75C60.6086 64.75 64.75 68.8914 64.75 74C64.75 79.1086 60.6086 83.25 55.5 83.25C50.3914 83.25 46.25 79.1086 46.25 74Z" fill="white"/>
</svg>
