<svg width="296" height="64" viewBox="0 0 296 64" fill="none" xmlns="http://www.w3.org/2000/svg">
<g filter="url(#filter0_i_196_895)">
<path d="M0 25C0 11.1929 11.1929 0 25 0H271C284.807 0 296 11.1929 296 25V39C296 52.8071 284.807 64 271 64H25C11.1929 64 0 52.8071 0 39V25Z" fill="#29941F"/>
</g>
<path d="M110.099 41V39.3381L120.292 24.1222H109.988V22.0909H123.025V23.7528L112.832 38.9688H123.136V41H110.099ZM132.086 46.6136C131.033 46.6136 130.128 46.4782 129.371 46.2074C128.614 45.9427 127.983 45.5919 127.478 45.1548C126.98 44.724 126.583 44.2623 126.287 43.7699L128.023 42.5511C128.22 42.8097 128.469 43.1051 128.771 43.4375C129.073 43.776 129.485 44.0684 130.008 44.3146C130.538 44.567 131.23 44.6932 132.086 44.6932C133.231 44.6932 134.175 44.4162 134.92 43.8622C135.665 43.3082 136.037 42.4403 136.037 41.2585V38.3778H135.853C135.693 38.6364 135.465 38.9564 135.169 39.3381C134.88 39.7135 134.462 40.049 133.914 40.3445C133.372 40.6338 132.64 40.7784 131.716 40.7784C130.571 40.7784 129.543 40.5076 128.632 39.9659C127.728 39.4242 127.011 38.6364 126.481 37.6023C125.958 36.5682 125.696 35.3125 125.696 33.8352C125.696 32.3826 125.952 31.1177 126.463 30.0405C126.974 28.9571 127.685 28.12 128.596 27.5291C129.507 26.9321 130.559 26.6335 131.753 26.6335C132.677 26.6335 133.409 26.7874 133.951 27.0952C134.499 27.3968 134.917 27.7415 135.206 28.1293C135.502 28.5109 135.73 28.8248 135.89 29.071H136.111V26.8182H138.216V41.4062C138.216 42.625 137.939 43.616 137.385 44.3793C136.838 45.1487 136.099 45.7119 135.169 46.0689C134.246 46.4321 133.218 46.6136 132.086 46.6136ZM132.012 38.821C132.886 38.821 133.624 38.621 134.228 38.2209C134.831 37.8208 135.289 37.2453 135.603 36.4943C135.917 35.7434 136.074 34.8447 136.074 33.7983C136.074 32.7765 135.92 31.8748 135.613 31.093C135.305 30.3113 134.849 29.6989 134.246 29.2557C133.643 28.8125 132.898 28.5909 132.012 28.5909C131.088 28.5909 130.319 28.8248 129.704 29.2926C129.094 29.7604 128.636 30.3883 128.328 31.1761C128.026 31.964 127.875 32.8381 127.875 33.7983C127.875 34.7831 128.029 35.6541 128.337 36.4112C128.651 37.1622 129.113 37.7531 129.722 38.1839C130.338 38.6087 131.101 38.821 132.012 38.821ZM147.646 41.2955C146.366 41.2955 145.243 40.9908 144.276 40.3814C143.316 39.772 142.565 38.9195 142.023 37.8239C141.488 36.7282 141.22 35.4479 141.22 33.983C141.22 32.5057 141.488 31.2161 142.023 30.1143C142.565 29.0125 143.316 28.157 144.276 27.5476C145.243 26.9382 146.366 26.6335 147.646 26.6335C148.927 26.6335 150.047 26.9382 151.007 27.5476C151.973 28.157 152.724 29.0125 153.26 30.1143C153.802 31.2161 154.072 32.5057 154.072 33.983C154.072 35.4479 153.802 36.7282 153.26 37.8239C152.724 38.9195 151.973 39.772 151.007 40.3814C150.047 40.9908 148.927 41.2955 147.646 41.2955ZM147.646 39.3381C148.619 39.3381 149.419 39.0888 150.047 38.5902C150.675 38.0916 151.139 37.4361 151.441 36.6236C151.743 35.8111 151.893 34.9309 151.893 33.983C151.893 33.035 151.743 32.1518 151.441 31.3331C151.139 30.5144 150.675 29.8527 150.047 29.348C149.419 28.8433 148.619 28.5909 147.646 28.5909C146.674 28.5909 145.874 28.8433 145.246 29.348C144.618 29.8527 144.153 30.5144 143.852 31.3331C143.55 32.1518 143.399 33.035 143.399 33.983C143.399 34.9309 143.55 35.8111 143.852 36.6236C144.153 37.4361 144.618 38.0916 145.246 38.5902C145.874 39.0888 146.674 39.3381 147.646 39.3381ZM162.434 41.2955C161.252 41.2955 160.209 40.9969 159.304 40.3999C158.399 39.7966 157.691 38.9472 157.18 37.8516C156.669 36.7498 156.414 35.4479 156.414 33.946C156.414 32.4564 156.669 31.1638 157.18 30.0682C157.691 28.9725 158.402 28.1262 159.313 27.5291C160.224 26.9321 161.277 26.6335 162.471 26.6335C163.394 26.6335 164.123 26.7874 164.659 27.0952C165.201 27.3968 165.613 27.7415 165.896 28.1293C166.185 28.5109 166.41 28.8248 166.57 29.071H166.755V22.0909H168.934V41H166.829V38.821H166.57C166.41 39.0795 166.182 39.4058 165.887 39.7997C165.591 40.1875 165.17 40.5353 164.622 40.843C164.074 41.1446 163.345 41.2955 162.434 41.2955ZM162.729 39.3381C163.603 39.3381 164.342 39.1103 164.945 38.6548C165.548 38.1932 166.007 37.5561 166.321 36.7436C166.635 35.925 166.792 34.9801 166.792 33.9091C166.792 32.8504 166.638 31.924 166.33 31.13C166.022 30.3298 165.567 29.7081 164.964 29.2649C164.36 28.8156 163.616 28.5909 162.729 28.5909C161.806 28.5909 161.036 28.8279 160.421 29.3018C159.812 29.7696 159.353 30.4067 159.045 31.2131C158.744 32.0133 158.593 32.9119 158.593 33.9091C158.593 34.9186 158.747 35.8357 159.054 36.6605C159.368 37.4792 159.83 38.1316 160.439 38.6179C161.055 39.098 161.818 39.3381 162.729 39.3381ZM177.08 41.3324C176.182 41.3324 175.366 41.1631 174.634 40.8246C173.901 40.4799 173.319 39.9844 172.889 39.3381C172.458 38.6856 172.242 37.8977 172.242 36.9744C172.242 36.1619 172.402 35.5033 172.722 34.9986C173.042 34.4877 173.47 34.0876 174.006 33.7983C174.541 33.509 175.132 33.2936 175.779 33.152C176.431 33.0043 177.087 32.8873 177.745 32.8011C178.607 32.6903 179.305 32.6072 179.841 32.5518C180.383 32.4903 180.777 32.3887 181.023 32.2472C181.275 32.1056 181.401 31.8594 181.401 31.5085V31.4347C181.401 30.5237 181.152 29.8158 180.654 29.3111C180.161 28.8063 179.413 28.554 178.41 28.554C177.37 28.554 176.554 28.7817 175.963 29.2372C175.372 29.6927 174.957 30.179 174.717 30.696L172.649 29.9574C173.018 29.0956 173.51 28.4247 174.126 27.9446C174.747 27.4583 175.425 27.1198 176.157 26.929C176.896 26.732 177.622 26.6335 178.336 26.6335C178.792 26.6335 179.315 26.6889 179.906 26.7997C180.503 26.9044 181.078 27.1229 181.632 27.4553C182.192 27.7876 182.657 28.2893 183.026 28.9602C183.396 29.6312 183.58 30.5298 183.58 31.6562V41H181.401V39.0795H181.291C181.143 39.3873 180.897 39.7166 180.552 40.0675C180.207 40.4183 179.749 40.7169 179.176 40.9631C178.604 41.2093 177.905 41.3324 177.08 41.3324ZM177.413 39.375C178.274 39.375 179.001 39.2057 179.592 38.8672C180.189 38.5286 180.638 38.0916 180.94 37.5561C181.247 37.0206 181.401 36.4574 181.401 35.8665V33.8722C181.309 33.983 181.106 34.0845 180.792 34.1768C180.484 34.263 180.127 34.34 179.721 34.4077C179.321 34.4692 178.93 34.5246 178.548 34.5739C178.173 34.617 177.868 34.6539 177.634 34.6847C177.068 34.7585 176.539 34.8786 176.046 35.0447C175.56 35.2048 175.166 35.4479 174.864 35.7741C174.569 36.0942 174.421 36.5312 174.421 37.0852C174.421 37.8423 174.701 38.4148 175.261 38.8026C175.828 39.1842 176.545 39.375 177.413 39.375Z" fill="white"/>
<path d="M110.099 41H109.599V41.5H110.099V41ZM110.099 39.3381L109.683 39.0598L109.599 39.1861V39.3381H110.099ZM120.292 24.1222L120.707 24.4004L121.229 23.6222H120.292V24.1222ZM109.988 24.1222H109.488V24.6222H109.988V24.1222ZM109.988 22.0909V21.5909H109.488V22.0909H109.988ZM123.025 22.0909H123.525V21.5909H123.025V22.0909ZM123.025 23.7528L123.44 24.0311L123.525 23.9048V23.7528H123.025ZM112.832 38.9688L112.416 38.6905L111.895 39.4688H112.832V38.9688ZM123.136 38.9688H123.636V38.4688H123.136V38.9688ZM123.136 41V41.5H123.636V41H123.136ZM110.599 41V39.3381H109.599V41H110.599ZM110.514 39.6163L120.707 24.4004L119.877 23.8439L109.683 39.0598L110.514 39.6163ZM120.292 23.6222H109.988V24.6222H120.292V23.6222ZM110.488 24.1222V22.0909H109.488V24.1222H110.488ZM109.988 22.5909H123.025V21.5909H109.988V22.5909ZM122.525 22.0909V23.7528H123.525V22.0909H122.525ZM122.61 23.4746L112.416 38.6905L113.247 39.247L123.44 24.0311L122.61 23.4746ZM112.832 39.4688H123.136V38.4688H112.832V39.4688ZM122.636 38.9688V41H123.636V38.9688H122.636ZM123.136 40.5H110.099V41.5H123.136V40.5ZM129.371 46.2074L129.54 45.7366L129.536 45.7354L129.371 46.2074ZM127.478 45.1548L127.806 44.7768L127.805 44.7765L127.478 45.1548ZM126.287 43.7699L126 43.3607L125.619 43.6281L125.859 44.0271L126.287 43.7699ZM128.023 42.5511L128.421 42.2481L128.129 41.8656L127.736 42.1419L128.023 42.5511ZM128.771 43.4375L129.144 43.1049L129.141 43.1015L128.771 43.4375ZM130.008 44.3146L130.223 43.8633L130.221 43.8622L130.008 44.3146ZM134.92 43.8622L135.219 44.2634L134.92 43.8622ZM136.037 38.3778H136.537V37.8778H136.037V38.3778ZM135.853 38.3778V37.8778H135.574L135.428 38.1147L135.853 38.3778ZM135.169 39.3381L134.774 39.032L134.773 39.0329L135.169 39.3381ZM133.914 40.3445L134.149 40.7855L134.151 40.7845L133.914 40.3445ZM128.632 39.9659L128.376 40.3949L128.377 40.3957L128.632 39.9659ZM126.481 37.6023L126.035 37.828L126.036 37.8301L126.481 37.6023ZM126.463 30.0405L126.915 30.2547L126.915 30.2538L126.463 30.0405ZM128.596 27.5291L128.868 27.9486L128.87 27.9473L128.596 27.5291ZM133.951 27.0952L133.704 27.5299L133.71 27.5332L133.951 27.0952ZM135.206 28.1293L134.806 28.4283L134.811 28.4353L135.206 28.1293ZM135.89 29.071L135.47 29.3435L135.618 29.571H135.89V29.071ZM136.111 29.071V29.571H136.611V29.071H136.111ZM136.111 26.8182V26.3182H135.611V26.8182H136.111ZM138.216 26.8182H138.716V26.3182H138.216V26.8182ZM137.385 44.3793L136.981 44.0856L136.978 44.0893L137.385 44.3793ZM135.169 46.0689L134.99 45.6021L134.986 45.6036L135.169 46.0689ZM134.228 38.2209L133.951 37.8042L134.228 38.2209ZM135.603 36.4943L136.065 36.6872V36.6872L135.603 36.4943ZM135.613 31.093L136.078 30.9099V30.9099L135.613 31.093ZM134.246 29.2557L133.95 29.6586V29.6586L134.246 29.2557ZM129.704 29.2926L129.401 28.8945L129.399 28.896L129.704 29.2926ZM128.328 31.1761L127.862 30.9942L127.861 30.9974L128.328 31.1761ZM128.337 36.4112L127.874 36.5995L127.876 36.6041L128.337 36.4112ZM129.722 38.1839L129.433 38.5922L129.438 38.5955L129.722 38.1839ZM132.086 46.1136C131.074 46.1136 130.229 45.9832 129.54 45.7366L129.203 46.6782C130.028 46.9733 130.992 47.1136 132.086 47.1136V46.1136ZM129.536 45.7354C128.827 45.4874 128.254 45.1652 127.806 44.7768L127.151 45.5328C127.712 46.0185 128.401 46.398 129.206 46.6794L129.536 45.7354ZM127.805 44.7765C127.341 44.3753 126.981 43.9534 126.716 43.5126L125.859 44.0271C126.185 44.5712 126.619 45.0726 127.151 45.5331L127.805 44.7765ZM126.575 44.1791L128.31 42.9603L127.736 42.1419L126 43.3607L126.575 44.1791ZM127.625 42.8542C127.834 43.1274 128.093 43.4342 128.401 43.7735L129.141 43.1015C128.846 42.776 128.607 42.4919 128.421 42.2481L127.625 42.8542ZM128.398 43.7701C128.755 44.1708 129.227 44.4997 129.795 44.767L130.221 43.8622C129.743 43.6371 129.391 43.3813 129.144 43.1049L128.398 43.7701ZM129.793 44.766C130.413 45.0616 131.187 45.1932 132.086 45.1932V44.1932C131.273 44.1932 130.662 44.0724 130.223 43.8633L129.793 44.766ZM132.086 45.1932C133.312 45.1932 134.369 44.8953 135.219 44.2634L134.622 43.461C133.982 43.9371 133.149 44.1932 132.086 44.1932V45.1932ZM135.219 44.2634C136.124 43.5899 136.537 42.5507 136.537 41.2585H135.537C135.537 42.3299 135.206 43.0266 134.622 43.461L135.219 44.2634ZM136.537 41.2585V38.3778H135.537V41.2585H136.537ZM136.037 37.8778H135.853V38.8778H136.037V37.8778ZM135.428 38.1147C135.28 38.3524 135.064 38.6572 134.774 39.032L135.565 39.6442C135.866 39.2557 136.105 38.9203 136.278 38.641L135.428 38.1147ZM134.773 39.0329C134.538 39.3383 134.181 39.6323 133.676 39.9044L134.151 40.7845C134.742 40.4657 135.222 40.0888 135.566 39.6432L134.773 39.0329ZM133.678 39.9034C133.236 40.1394 132.595 40.2784 131.716 40.2784V41.2784C132.684 41.2784 133.508 41.1282 134.149 40.7855L133.678 39.9034ZM131.716 40.2784C130.654 40.2784 129.716 40.0282 128.888 39.5361L128.377 40.3957C129.371 40.987 130.489 41.2784 131.716 41.2784V40.2784ZM128.889 39.5369C128.073 39.0482 127.417 38.3339 126.926 37.3744L126.036 37.8301C126.604 38.9388 127.382 39.8003 128.376 40.3949L128.889 39.5369ZM126.927 37.3765C126.448 36.429 126.196 35.255 126.196 33.8352H125.196C125.196 35.37 125.468 36.7074 126.035 37.828L126.927 37.3765ZM126.196 33.8352C126.196 32.4408 126.442 31.252 126.915 30.2547L126.011 29.8262C125.462 30.9834 125.196 32.3244 125.196 33.8352H126.196ZM126.915 30.2538C127.39 29.2456 128.043 28.4837 128.868 27.9486L128.323 27.1096C127.327 27.7563 126.557 28.6687 126.011 29.8272L126.915 30.2538ZM128.87 27.9473C129.691 27.4087 130.647 27.1335 131.753 27.1335V26.1335C130.471 26.1335 129.322 26.4554 128.321 27.1109L128.87 27.9473ZM131.753 27.1335C132.629 27.1335 133.265 27.2807 133.704 27.5299L134.198 26.6604C133.553 26.2941 132.724 26.1335 131.753 26.1335V27.1335ZM133.71 27.5332C134.212 27.81 134.57 28.1118 134.806 28.4282L135.607 27.8303C135.265 27.3712 134.785 26.9835 134.192 26.6572L133.71 27.5332ZM134.811 28.4353C135.103 28.8121 135.321 29.1138 135.47 29.3435L136.309 28.7985C136.138 28.5359 135.901 28.2097 135.602 27.8232L134.811 28.4353ZM135.89 29.571H136.111V28.571H135.89V29.571ZM136.611 29.071V26.8182H135.611V29.071H136.611ZM136.111 27.3182H138.216V26.3182H136.111V27.3182ZM137.716 26.8182V41.4062H138.716V26.8182H137.716ZM137.716 41.4062C137.716 42.5503 137.457 43.4297 136.981 44.0856L137.79 44.673C138.422 43.8023 138.716 42.6997 138.716 41.4062H137.716ZM136.978 44.0893C136.49 44.7742 135.833 45.2784 134.99 45.6021L135.349 46.5356C136.365 46.1454 137.185 45.5232 137.793 44.6693L136.978 44.0893ZM134.986 45.6036C134.129 45.9408 133.164 46.1136 132.086 46.1136V47.1136C133.272 47.1136 134.363 46.9233 135.352 46.5342L134.986 45.6036ZM132.012 39.321C132.963 39.321 133.803 39.1024 134.504 38.6376L133.951 37.8042C133.446 38.1396 132.808 38.321 132.012 38.321V39.321ZM134.504 38.6376C135.2 38.1761 135.718 37.5176 136.065 36.6872L135.142 36.3015C134.861 36.9729 134.462 37.4654 133.951 37.8042L134.504 38.6376ZM136.065 36.6872C136.41 35.8604 136.574 34.8928 136.574 33.7983H135.574C135.574 34.7966 135.424 35.6264 135.142 36.3015L136.065 36.6872ZM136.574 33.7983C136.574 32.727 136.413 31.7611 136.078 30.9099L135.147 31.2762C135.428 31.9885 135.574 32.826 135.574 33.7983H136.574ZM136.078 30.9099C135.74 30.0515 135.23 29.3584 134.542 28.8527L133.95 29.6586C134.468 30.0393 134.87 30.5712 135.147 31.2762L136.078 30.9099ZM134.542 28.8527C133.838 28.3355 132.984 28.0909 132.012 28.0909V29.0909C132.812 29.0909 133.448 29.2895 133.95 29.6586L134.542 28.8527ZM132.012 28.0909C131.001 28.0909 130.119 28.3485 129.401 28.8945L130.006 29.6907C130.519 29.3011 131.176 29.0909 132.012 29.0909V28.0909ZM129.399 28.896C128.71 29.4248 128.2 30.1303 127.862 30.9942L128.794 31.3581C129.072 30.6463 129.478 30.096 130.008 29.6892L129.399 28.896ZM127.861 30.9974C127.535 31.8496 127.375 32.7853 127.375 33.7983H128.375C128.375 32.8908 128.518 32.0784 128.795 31.3549L127.861 30.9974ZM127.375 33.7983C127.375 34.8348 127.537 35.7717 127.874 36.5995L128.8 36.2229C128.521 35.5365 128.375 34.7315 128.375 33.7983H127.375ZM127.876 36.6041C128.222 37.4335 128.74 38.1023 129.433 38.5922L130.011 37.7757C129.485 37.4039 129.079 36.8909 128.798 36.2184L127.876 36.6041ZM129.438 38.5955C130.154 39.0894 131.022 39.321 132.012 39.321V38.321C131.18 38.321 130.521 38.128 130.006 37.7724L129.438 38.5955ZM144.276 40.3814L144.008 40.8036L144.01 40.8043L144.276 40.3814ZM142.023 37.8239L141.574 38.0434L141.575 38.0455L142.023 37.8239ZM142.023 30.1143L141.575 29.8938L141.574 29.8958L142.023 30.1143ZM144.276 27.5476L144.01 27.1246L144.008 27.1254L144.276 27.5476ZM151.007 27.5476L150.739 27.9698L150.74 27.9705L151.007 27.5476ZM153.26 30.1143L152.81 30.3329L152.811 30.3349L153.26 30.1143ZM153.26 37.8239L152.812 37.6023L152.811 37.6043L153.26 37.8239ZM151.007 40.3814L150.74 39.9585L150.739 39.9592L151.007 40.3814ZM150.047 38.5902L149.736 38.1986L150.047 38.5902ZM151.441 36.6236L151.91 36.7976L151.441 36.6236ZM151.441 31.3331L151.91 31.1602L151.441 31.3331ZM150.047 29.348L150.36 28.9583L150.047 29.348ZM145.246 29.348L144.932 28.9583L145.246 29.348ZM143.852 31.3331L143.382 31.1602H143.382L143.852 31.3331ZM143.852 36.6236L143.383 36.7976L143.852 36.6236ZM145.246 38.5902L145.557 38.1986L145.246 38.5902ZM147.646 40.7955C146.449 40.7955 145.42 40.5116 144.543 39.9585L144.01 40.8043C145.065 41.47 146.283 41.7955 147.646 41.7955V40.7955ZM144.544 39.9592C143.667 39.4026 142.976 38.6222 142.472 37.6023L141.575 38.0455C142.154 39.2168 142.965 40.1414 144.008 40.8036L144.544 39.9592ZM142.473 37.6043C141.977 36.5894 141.72 35.3869 141.72 33.983H140.72C140.72 35.5089 140.999 36.867 141.574 38.0434L142.473 37.6043ZM141.72 33.983C141.72 32.566 141.977 31.354 142.473 30.3329L141.574 29.8958C140.999 31.0783 140.72 32.4453 140.72 33.983H141.72ZM142.472 30.3349C142.977 29.3089 143.668 28.5259 144.544 27.9698L144.008 27.1254C142.964 27.788 142.154 28.7162 141.575 29.8938L142.472 30.3349ZM144.543 27.9705C145.42 27.4174 146.449 27.1335 147.646 27.1335V26.1335C146.283 26.1335 145.065 26.459 144.01 27.1246L144.543 27.9705ZM147.646 27.1335C148.844 27.1335 149.869 27.4174 150.739 27.9697L151.275 27.1254C150.225 26.459 149.009 26.1335 147.646 26.1335V27.1335ZM150.74 27.9705C151.622 28.5266 152.312 29.3087 152.81 30.3329L153.71 29.8958C153.136 28.7164 152.325 27.7874 151.274 27.1246L150.74 27.9705ZM152.811 30.3349C153.313 31.3555 153.572 32.5668 153.572 33.983H154.572C154.572 32.4445 154.29 31.0768 153.709 29.8938L152.811 30.3349ZM153.572 33.983C153.572 35.3862 153.313 36.5879 152.812 37.6023L153.708 38.0455C154.29 36.8685 154.572 35.5097 154.572 33.983H153.572ZM152.811 37.6043C152.313 38.6224 151.623 39.402 150.74 39.9585L151.274 40.8043C152.324 40.1421 153.136 39.2166 153.709 38.0434L152.811 37.6043ZM150.739 39.9592C149.869 40.5116 148.844 40.7955 147.646 40.7955V41.7955C149.009 41.7955 150.225 41.47 151.275 40.8036L150.739 39.9592ZM147.646 39.8381C148.707 39.8381 149.624 39.5646 150.358 38.9818L149.736 38.1986C149.214 38.613 148.531 38.8381 147.646 38.8381V39.8381ZM150.358 38.9818C151.063 38.4218 151.579 37.6885 151.91 36.7976L150.972 36.4496C150.7 37.1837 150.287 37.7614 149.736 38.1986L150.358 38.9818ZM151.91 36.7976C152.234 35.9244 152.393 34.9847 152.393 33.983H151.393C151.393 34.877 151.251 35.6978 150.972 36.4496L151.91 36.7976ZM152.393 33.983C152.393 32.9812 152.234 32.0388 151.91 31.1602L150.972 31.5059C151.251 32.2647 151.393 33.0889 151.393 33.983H152.393ZM151.91 31.1602C151.58 30.2638 151.064 29.5246 150.36 28.9583L149.734 29.7377C150.285 30.1809 150.699 30.7651 150.972 31.5059L151.91 31.1602ZM150.36 28.9583C149.626 28.3682 148.708 28.0909 147.646 28.0909V29.0909C148.529 29.0909 149.212 29.3183 149.734 29.7377L150.36 28.9583ZM147.646 28.0909C146.584 28.0909 145.666 28.3682 144.932 28.9583L145.559 29.7377C146.081 29.3183 146.763 29.0909 147.646 29.0909V28.0909ZM144.932 28.9583C144.228 29.5246 143.713 30.2638 143.382 31.1602L144.321 31.5059C144.594 30.7651 145.008 30.1809 145.559 29.7377L144.932 28.9583ZM143.382 31.1602C143.059 32.0388 142.899 32.9812 142.899 33.983H143.899C143.899 33.0889 144.041 32.2647 144.321 31.5059L143.382 31.1602ZM142.899 33.983C142.899 34.9847 143.059 35.9244 143.383 36.7976L144.32 36.4496C144.041 35.6978 143.899 34.877 143.899 33.983H142.899ZM143.383 36.7976C143.714 37.6885 144.23 38.4218 144.935 38.9818L145.557 38.1986C145.006 37.7614 144.593 37.1837 144.32 36.4496L143.383 36.7976ZM144.935 38.9818C145.669 39.5646 146.586 39.8381 147.646 39.8381V38.8381C146.762 38.8381 146.078 38.613 145.557 38.1986L144.935 38.9818ZM159.304 40.3999L159.026 40.8159L159.028 40.8172L159.304 40.3999ZM157.18 37.8516L156.727 38.0619L156.727 38.0629L157.18 37.8516ZM157.18 30.0682L156.727 29.8569L157.18 30.0682ZM159.313 27.5291L159.039 27.1109L159.313 27.5291ZM164.659 27.0952L164.41 27.5287L164.416 27.532L164.659 27.0952ZM165.896 28.1293L165.492 28.4242L165.498 28.4313L165.896 28.1293ZM166.57 29.071L166.151 29.3435L166.299 29.571H166.57V29.071ZM166.755 29.071V29.571H167.255V29.071H166.755ZM166.755 22.0909V21.5909H166.255V22.0909H166.755ZM168.934 22.0909H169.434V21.5909H168.934V22.0909ZM168.934 41V41.5H169.434V41H168.934ZM166.829 41H166.329V41.5H166.829V41ZM166.829 38.821H167.329V38.321H166.829V38.821ZM166.57 38.821V38.321H166.292L166.145 38.5578L166.57 38.821ZM165.887 39.7997L166.285 40.1027L166.287 40.0997L165.887 39.7997ZM164.622 40.843L164.863 41.2811L164.867 41.279L164.622 40.843ZM164.945 38.6548L165.246 39.0539L165.249 39.0519L164.945 38.6548ZM166.321 36.7436L166.787 36.9238L166.788 36.9226L166.321 36.7436ZM166.33 31.13L165.863 31.3095L165.864 31.3107L166.33 31.13ZM164.964 29.2649L164.665 29.6659L164.668 29.6679L164.964 29.2649ZM160.421 29.3018L160.725 29.6985L160.726 29.698L160.421 29.3018ZM159.045 31.2131L158.578 31.0348L158.577 31.0367L159.045 31.2131ZM159.054 36.6605L158.586 36.8353L158.588 36.8395L159.054 36.6605ZM160.439 38.6179L160.128 39.0087L160.132 39.0121L160.439 38.6179ZM162.434 40.7955C161.341 40.7955 160.395 40.5208 159.579 39.9825L159.028 40.8172C160.022 41.473 161.163 41.7955 162.434 41.7955V40.7955ZM159.581 39.9838C158.761 39.437 158.11 38.6624 157.633 37.6403L156.727 38.0629C157.272 39.232 158.037 40.1563 159.026 40.8159L159.581 39.9838ZM157.634 37.6412C157.16 36.619 156.914 35.392 156.914 33.946H155.914C155.914 35.5038 156.179 36.8805 156.727 38.0619L157.634 37.6412ZM156.914 33.946C156.914 32.5129 157.16 31.2954 157.633 30.2795L156.727 29.8569C156.179 31.0322 155.914 32.4 155.914 33.946H156.914ZM157.633 30.2795C158.109 29.2586 158.762 28.4879 159.587 27.9473L159.039 27.1109C158.042 27.7644 157.273 28.6865 156.727 29.8569L157.633 30.2795ZM159.587 27.9473C160.409 27.4087 161.364 27.1335 162.471 27.1335V26.1335C161.189 26.1335 160.039 26.4554 159.039 27.1109L159.587 27.9473ZM162.471 27.1335C163.347 27.1335 163.979 27.2809 164.41 27.5287L164.908 26.6617C164.268 26.294 163.441 26.1335 162.471 26.1335V27.1335ZM164.416 27.532C164.912 27.8083 165.262 28.1091 165.492 28.4241L166.3 27.8344C165.964 27.3739 165.489 26.9853 164.902 26.6583L164.416 27.532ZM165.498 28.4313C165.784 28.8085 166 29.1117 166.151 29.3435L166.989 28.7985C166.82 28.5379 166.587 28.2133 166.295 27.8272L165.498 28.4313ZM166.57 29.571H166.755V28.571H166.57V29.571ZM167.255 29.071V22.0909H166.255V29.071H167.255ZM166.755 22.5909H168.934V21.5909H166.755V22.5909ZM168.434 22.0909V41H169.434V22.0909H168.434ZM168.934 40.5H166.829V41.5H168.934V40.5ZM167.329 41V38.821H166.329V41H167.329ZM166.829 38.321H166.57V39.321H166.829V38.321ZM166.145 38.5578C165.996 38.7984 165.778 39.1114 165.487 39.4997L166.287 40.0997C166.587 39.7002 166.824 39.3606 166.995 39.0842L166.145 38.5578ZM165.489 39.4967C165.245 39.817 164.882 40.1235 164.377 40.4071L164.867 41.279C165.458 40.947 165.938 40.558 166.285 40.1027L165.489 39.4967ZM164.381 40.405C163.933 40.6516 163.296 40.7955 162.434 40.7955V41.7955C163.393 41.7955 164.215 41.6377 164.863 41.281L164.381 40.405ZM162.729 39.8381C163.694 39.8381 164.543 39.5848 165.246 39.0539L164.644 38.2558C164.14 38.6359 163.512 38.8381 162.729 38.8381V39.8381ZM165.249 39.0519C165.936 38.5265 166.445 37.8093 166.787 36.9238L165.854 36.5634C165.569 37.3029 165.161 37.8599 164.641 38.2578L165.249 39.0519ZM166.788 36.9226C167.128 36.0357 167.292 35.0282 167.292 33.9091H166.292C166.292 34.9321 166.142 35.8142 165.854 36.5646L166.788 36.9226ZM167.292 33.9091C167.292 32.8031 167.131 31.8131 166.796 30.9493L165.864 31.3107C166.145 32.035 166.292 32.8977 166.292 33.9091H167.292ZM166.797 30.9505C166.46 30.0743 165.951 29.3697 165.26 28.862L164.668 29.6679C165.183 30.0465 165.585 30.5852 165.863 31.3095L166.797 30.9505ZM165.262 28.8639C164.558 28.3394 163.703 28.0909 162.729 28.0909V29.0909C163.528 29.0909 164.163 29.2918 164.665 29.6659L165.262 28.8639ZM162.729 28.0909C161.717 28.0909 160.835 28.3523 160.116 28.9057L160.726 29.698C161.238 29.3034 161.895 29.0909 162.729 29.0909V28.0909ZM160.116 28.9052C159.425 29.4361 158.915 30.153 158.578 31.0348L159.512 31.3914C159.791 30.6605 160.198 30.1032 160.725 29.6985L160.116 28.9052ZM158.577 31.0367C158.251 31.9018 158.093 32.8615 158.093 33.9091H159.093C159.093 32.9623 159.236 32.1247 159.513 31.3894L158.577 31.0367ZM158.093 33.9091C158.093 34.9696 158.255 35.947 158.586 36.8353L159.523 36.4857C159.239 35.7244 159.093 34.8675 159.093 33.9091H158.093ZM158.588 36.8395C158.929 37.7307 159.44 38.4602 160.128 39.0087L160.751 38.2271C160.22 37.803 159.807 37.2276 159.521 36.4815L158.588 36.8395ZM160.132 39.0121C160.849 39.5718 161.726 39.8381 162.729 39.8381V38.8381C161.91 38.8381 161.26 38.6242 160.747 38.2236L160.132 39.0121ZM174.634 40.8246L174.421 41.277L174.424 41.2784L174.634 40.8246ZM172.889 39.3381L172.471 39.6136L172.473 39.6154L172.889 39.3381ZM172.722 34.9986L173.145 35.2664L173.146 35.264L172.722 34.9986ZM175.779 33.152L175.885 33.6404L175.889 33.6396L175.779 33.152ZM177.745 32.8011L177.681 32.3052L177.68 32.3054L177.745 32.8011ZM179.841 32.5518L179.892 33.0492L179.897 33.0486L179.841 32.5518ZM181.023 32.2472L180.778 31.8111L180.774 31.8137L181.023 32.2472ZM180.654 29.3111L180.296 29.6602L180.298 29.6625L180.654 29.3111ZM175.963 29.2372L176.268 29.6332L175.963 29.2372ZM174.717 30.696L174.549 31.1669L174.978 31.3203L175.17 30.9066L174.717 30.696ZM172.649 29.9574L172.189 29.7604L171.979 30.2493L172.48 30.4283L172.649 29.9574ZM174.126 27.9446L174.433 28.3389L174.434 28.3384L174.126 27.9446ZM176.157 26.929L176.283 27.4128L176.286 27.4121L176.157 26.929ZM179.906 26.7997L179.813 27.2912L179.819 27.2922L179.906 26.7997ZM181.632 27.4553L181.375 27.884L181.377 27.8852L181.632 27.4553ZM183.026 28.9602L182.588 29.2013L183.026 28.9602ZM183.58 41V41.5H184.08V41H183.58ZM181.401 41H180.901V41.5H181.401V41ZM181.401 39.0795H181.901V38.5795H181.401V39.0795ZM181.291 39.0795V38.5795H180.976L180.84 38.8632L181.291 39.0795ZM180.552 40.0675L180.909 40.4179L180.552 40.0675ZM179.176 40.9631L178.979 40.5038L179.176 40.9631ZM179.592 38.8672L179.345 38.4322L179.343 38.4333L179.592 38.8672ZM180.94 37.5561L180.506 37.307L180.504 37.3107L180.94 37.5561ZM181.401 33.8722H181.901V32.4911L181.017 33.5521L181.401 33.8722ZM180.792 34.1768L180.927 34.6584L180.933 34.6565L180.792 34.1768ZM179.721 34.4077L179.797 34.9019L179.803 34.9009L179.721 34.4077ZM178.548 34.5739L178.605 35.0707L178.612 35.0698L178.548 34.5739ZM177.634 34.6847L177.699 35.1805L177.7 35.1804L177.634 34.6847ZM176.046 35.0447L176.203 35.5197L176.206 35.5185L176.046 35.0447ZM174.864 35.7741L174.497 35.4347L174.497 35.435L174.864 35.7741ZM175.261 38.8026L174.977 39.2137L174.982 39.2172L175.261 38.8026ZM177.08 40.8324C176.246 40.8324 175.503 40.6756 174.843 40.3707L174.424 41.2784C175.229 41.6507 176.118 41.8324 177.08 41.8324V40.8324ZM174.847 40.3722C174.193 40.0645 173.683 39.628 173.305 39.0607L172.473 39.6154C172.956 40.3408 173.609 40.8952 174.421 41.277L174.847 40.3722ZM173.306 39.0625C172.938 38.5057 172.742 37.8178 172.742 36.9744H171.742C171.742 37.9776 171.977 38.8655 172.471 39.6136L173.306 39.0625ZM172.742 36.9744C172.742 36.2237 172.891 35.6671 173.145 35.2663L172.3 34.7308C171.914 35.3396 171.742 36.1001 171.742 36.9744H172.742ZM173.146 35.264C173.42 34.8271 173.783 34.4868 174.243 34.2382L173.768 33.3584C173.157 33.6884 172.665 34.1482 172.299 34.7331L173.146 35.264ZM174.243 34.2382C174.734 33.9729 175.281 33.7729 175.885 33.6404L175.672 32.6636C174.984 32.8143 174.348 33.0451 173.768 33.3584L174.243 34.2382ZM175.889 33.6396C176.526 33.4953 177.167 33.3811 177.81 33.2969L177.68 32.3054C177.006 32.3936 176.335 32.5132 175.668 32.6643L175.889 33.6396ZM177.809 33.2971C178.669 33.1865 179.363 33.104 179.892 33.0492L179.79 32.0545C179.248 32.1105 178.545 32.1942 177.681 32.3052L177.809 33.2971ZM179.897 33.0486C180.456 32.9852 180.934 32.8749 181.272 32.6806L180.774 31.8137C180.619 31.9026 180.309 31.9954 179.785 32.055L179.897 33.0486ZM181.267 32.6832C181.714 32.433 181.901 31.9948 181.901 31.5085H180.901C180.901 31.724 180.837 31.7782 180.778 31.8111L181.267 32.6832ZM181.901 31.5085V31.4347H180.901V31.5085H181.901ZM181.901 31.4347C181.901 30.4312 181.624 29.5825 181.009 28.9597L180.298 29.6625C180.68 30.0491 180.901 30.6162 180.901 31.4347H181.901ZM181.011 28.9619C180.391 28.3261 179.49 28.054 178.41 28.054V29.054C179.336 29.054 179.931 29.2866 180.296 29.6602L181.011 28.9619ZM178.41 28.054C177.302 28.054 176.365 28.2962 175.658 28.8412L176.268 29.6332C176.743 29.2673 177.437 29.054 178.41 29.054V28.054ZM175.658 28.8412C175.022 29.3311 174.546 29.8766 174.263 30.4855L175.17 30.9066C175.368 30.4813 175.722 30.0543 176.268 29.6332L175.658 28.8412ZM174.885 30.2252L172.817 29.4865L172.48 30.4283L174.549 31.1669L174.885 30.2252ZM173.108 30.1543C173.451 29.3546 173.896 28.7576 174.433 28.3389L173.818 27.5504C173.124 28.0918 172.585 28.8367 172.189 29.7604L173.108 30.1543ZM174.434 28.3384C175.004 27.8925 175.62 27.5857 176.283 27.4128L176.031 26.4451C175.23 26.6539 174.491 27.0242 173.818 27.5508L174.434 28.3384ZM176.286 27.4121C176.985 27.2255 177.668 27.1335 178.336 27.1335V26.1335C177.576 26.1335 176.806 26.2385 176.028 26.4459L176.286 27.4121ZM178.336 27.1335C178.753 27.1335 179.244 27.1844 179.813 27.2912L179.998 26.3083C179.385 26.1935 178.83 26.1335 178.336 26.1335V27.1335ZM179.819 27.2922C180.352 27.3856 180.87 27.5811 181.375 27.884L181.889 27.0265C181.286 26.6647 180.653 26.4231 179.992 26.3072L179.819 27.2922ZM181.377 27.8852C181.848 28.1647 182.254 28.5947 182.588 29.2013L183.464 28.7191C183.06 27.9839 182.537 27.4106 181.887 27.0253L181.377 27.8852ZM182.588 29.2013C182.902 29.7717 183.08 30.5773 183.08 31.6562H184.08C184.08 30.4824 183.889 29.4906 183.464 28.7191L182.588 29.2013ZM183.08 31.6562V41H184.08V31.6562H183.08ZM183.58 40.5H181.401V41.5H183.58V40.5ZM181.901 41V39.0795H180.901V41H181.901ZM181.401 38.5795H181.291V39.5795H181.401V38.5795ZM180.84 38.8632C180.724 39.1048 180.517 39.3897 180.195 39.7171L180.909 40.4179C181.276 40.0436 181.562 39.6698 181.741 39.2959L180.84 38.8632ZM180.195 39.7171C179.906 40.0111 179.507 40.2766 178.979 40.5038L179.374 41.4224C179.991 41.1571 180.508 40.8256 180.909 40.4179L180.195 39.7171ZM178.979 40.5038C178.485 40.716 177.858 40.8324 177.08 40.8324V41.8324C177.952 41.8324 178.722 41.7026 179.374 41.4224L178.979 40.5038ZM177.413 39.875C178.339 39.875 179.156 39.693 179.84 39.301L179.343 38.4333C178.845 38.7185 178.21 38.875 177.413 38.875V39.875ZM179.838 39.3021C180.505 38.9241 181.024 38.4252 181.375 37.8015L180.504 37.3107C180.252 37.7581 179.873 38.1332 179.345 38.4322L179.838 39.3021ZM181.373 37.8053C181.723 37.1975 181.901 36.5488 181.901 35.8665H180.901C180.901 36.3659 180.772 36.8437 180.506 37.307L181.373 37.8053ZM181.901 35.8665V33.8722H180.901V35.8665H181.901ZM181.017 33.5521C181.033 33.5328 181.028 33.5485 180.956 33.5842C180.89 33.6174 180.791 33.656 180.651 33.6972L180.933 34.6565C181.107 34.6053 181.267 34.547 181.403 34.4786C181.535 34.4128 181.677 34.3223 181.785 34.1922L181.017 33.5521ZM180.657 33.6954C180.371 33.7755 180.032 33.8489 179.639 33.9145L179.803 34.9009C180.222 34.831 180.598 34.7505 180.927 34.6583L180.657 33.6954ZM179.645 33.9135C179.249 33.9745 178.862 34.0293 178.484 34.078L178.612 35.0698C178.998 35.02 179.393 34.964 179.797 34.9019L179.645 33.9135ZM178.491 34.0771C178.115 34.1204 177.807 34.1576 177.569 34.1889L177.7 35.1804C177.93 35.1501 178.231 35.1135 178.605 35.0706L178.491 34.0771ZM177.57 34.1889C176.974 34.2665 176.413 34.3934 175.886 34.571L176.206 35.5185C176.665 35.3637 177.162 35.2505 177.699 35.1805L177.57 34.1889ZM175.89 34.5698C175.335 34.7523 174.865 35.0372 174.497 35.4347L175.232 36.1136C175.467 35.8586 175.785 35.6573 176.203 35.5197L175.89 34.5698ZM174.497 35.435C174.095 35.8706 173.921 36.441 173.921 37.0852H174.921C174.921 36.6215 175.043 36.3179 175.232 36.1133L174.497 35.435ZM173.921 37.0852C173.921 37.9851 174.265 38.721 174.977 39.2137L175.546 38.3915C175.137 38.1086 174.921 37.6996 174.921 37.0852H173.921ZM174.982 39.2172C175.651 39.6678 176.472 39.875 177.413 39.875V38.875C176.617 38.875 176.005 38.7006 175.541 38.3879L174.982 39.2172Z" fill="white"/>
<defs>
<filter id="filter0_i_196_895" x="0" y="0" width="296" height="68" filterUnits="userSpaceOnUse" color-interpolation-filters="sRGB">
<feFlood flood-opacity="0" result="BackgroundImageFix"/>
<feBlend mode="normal" in="SourceGraphic" in2="BackgroundImageFix" result="shape"/>
<feColorMatrix in="SourceAlpha" type="matrix" values="0 0 0 0 0 0 0 0 0 0 0 0 0 0 0 0 0 0 127 0" result="hardAlpha"/>
<feOffset dy="4"/>
<feGaussianBlur stdDeviation="2"/>
<feComposite in2="hardAlpha" operator="arithmetic" k2="-1" k3="1"/>
<feColorMatrix type="matrix" values="0 0 0 0 0 0 0 0 0 0 0 0 0 0 0 0 0 0 0.25 0"/>
<feBlend mode="normal" in2="shape" result="effect1_innerShadow_196_895"/>
</filter>
</defs>
</svg>
