<svg width="393" height="305" viewBox="0 0 393 305" fill="none" xmlns="http://www.w3.org/2000/svg">
<path d="M115.744 24.72L116.704 24.08C114.971 20.7467 114.104 17.0933 114.104 13.12C114.104 10.0267 114.864 7.4 116.384 5.24C117.931 3.08 120.104 2 122.904 2C124.371 2 125.611 2.25333 126.624 2.76C126.357 4.25333 125.877 6.85333 125.184 10.56C123.691 18.5333 122.944 23.1067 122.944 24.28C122.944 26.8133 123.371 28.7067 124.224 29.96C123.051 30.7333 121.971 31.2667 120.984 31.56C119.997 31.8533 118.717 32 117.144 32C115.597 32 114.184 31.6667 112.904 31C111.651 30.3333 110.611 29.4533 109.784 28.36C108.984 27.24 108.304 25.8667 107.744 24.24C106.757 21.3867 106.157 17.76 105.944 13.36H105.304C104.077 18.9067 103.464 22.7867 103.464 25C103.464 27.2133 103.864 28.96 104.664 30.24C103.064 31.44 101.397 32.04 99.6641 32.04C97.9307 32.04 96.6907 31.5467 95.9441 30.56C95.1974 29.5467 94.8241 28.0533 94.8241 26.08C94.8241 24.08 95.6641 18.44 97.3441 9.16L95.2241 4.88C98.2107 2.96 100.877 2 103.224 2C105.571 2 107.344 2.41333 108.544 3.24C109.744 4.04 110.584 5.22667 111.064 6.8C111.544 8.37333 111.891 10.04 112.104 11.8C112.344 13.5333 112.744 15.6267 113.304 18.08C113.891 20.5333 114.704 22.7467 115.744 24.72ZM140.349 32C136.695 32 133.869 31.0533 131.869 29.16C129.895 27.2667 128.909 24.7067 128.909 21.48C128.909 17.1867 130.375 13.7067 133.309 11.04C136.269 8.34667 139.975 7 144.429 7C146.909 7 148.789 7.56 150.069 8.68C151.349 9.77333 151.989 11.2267 151.989 13.04C151.989 15.52 150.775 17.5867 148.349 19.24C145.949 20.8667 142.229 21.6933 137.189 21.72C137.269 23.4267 137.655 24.7733 138.349 25.76C139.042 26.72 139.909 27.2 140.949 27.2C141.989 27.2 142.882 26.8533 143.629 26.16C144.402 25.4667 144.789 24.3333 144.789 22.76C148.682 22.76 150.629 23.68 150.629 25.52C150.629 27.0933 149.669 28.5733 147.749 29.96C145.829 31.32 143.362 32 140.349 32ZM143.749 11.68C142.389 11.68 141.135 12.36 139.989 13.72C138.869 15.08 138.055 16.68 137.549 18.52C140.215 18.3067 142.215 17.7067 143.549 16.72C144.909 15.7067 145.589 14.64 145.589 13.52C145.589 12.9867 145.415 12.5467 145.069 12.2C144.749 11.8533 144.309 11.68 143.749 11.68ZM174.598 10.04C176.091 10.04 177.371 10.64 178.438 11.84C179.531 13.04 180.078 14.7867 180.078 17.08C180.078 19.3467 179.678 21.4533 178.878 23.4C178.078 25.32 177.024 26.8933 175.718 28.12C174.411 29.3467 172.931 30.3067 171.278 31C169.624 31.6667 167.931 32 166.198 32C162.704 32 159.944 31.04 157.918 29.12C155.891 27.2 154.878 24.6533 154.878 21.48C154.878 17.1867 156.251 13.7067 158.998 11.04C161.771 8.34667 165.291 7 169.558 7C170.518 7 171.478 7.10667 172.438 7.32C172.731 8.2 172.891 9.2 172.918 10.32C173.478 10.1333 174.038 10.04 174.598 10.04ZM169.678 15.6C169.678 14.8533 169.851 14.0133 170.198 13.08C170.571 12.1467 171.158 11.4 171.958 10.84C168.438 11.5867 166.011 13.0133 164.678 15.12C163.531 16.9333 162.958 18.8 162.958 20.72C162.958 22.64 163.344 24.1867 164.118 25.36C164.918 26.5067 165.931 27.08 167.158 27.08C169.878 27.08 171.798 25.3067 172.918 21.76C170.758 20.4267 169.678 18.3733 169.678 15.6ZM188.552 32.04C186.845 32.04 185.618 31.5467 184.872 30.56C184.125 29.5467 183.752 28.0533 183.752 26.08C183.752 24.08 184.592 18.44 186.272 9.16L184.152 4.88C187.165 2.93333 189.912 1.96 192.392 1.96C194.045 1.96 195.032 2.76 195.352 4.36C198.098 2.78667 200.792 2 203.432 2C205.165 2 206.685 2.4 207.992 3.2C209.538 4.13333 210.312 5.74667 210.312 8.04C210.312 11.8267 208.218 14.5733 204.032 16.28C208.298 17.0267 210.432 19.4133 210.432 23.44C210.432 26.0533 209.352 28.1333 207.192 29.68C205.032 31.2267 202.605 32 199.912 32C197.245 32 195.098 31.44 193.472 30.32C191.898 31.4667 190.258 32.04 188.552 32.04ZM201.192 22.56C201.192 21.3067 200.818 20.3867 200.072 19.8C199.352 19.2133 198.378 18.92 197.152 18.92C195.925 18.92 194.552 19.1733 193.032 19.68C192.605 21.9467 192.392 23.88 192.392 25.48C193.698 26.0933 195.058 26.4 196.472 26.4C197.885 26.4 199.018 26.0667 199.872 25.4C200.752 24.7333 201.192 23.7867 201.192 22.56ZM198.592 7.28C197.552 7.28 196.432 7.48 195.232 7.88C195.072 8.92 194.578 11.5867 193.752 15.88C195.965 15.72 197.845 15.1867 199.392 14.28C200.938 13.3467 201.712 12.0133 201.712 10.28C201.712 8.28 200.672 7.28 198.592 7.28ZM228.385 26.08L227.985 25.88C227.265 27.8 226.225 29.3067 224.865 30.4C223.532 31.4667 222.038 32 220.385 32C218.118 32 216.305 31.1467 214.945 29.44C213.585 27.7333 212.905 25.4533 212.905 22.6C212.905 18.1733 214.385 14.4667 217.345 11.48C220.332 8.49333 224.038 7 228.465 7C229.612 7 230.665 7.10667 231.625 7.32C231.785 8.06667 231.878 8.72 231.905 9.28C233.238 8.42666 234.612 8 236.025 8C237.972 8 238.945 9.05333 238.945 11.16C238.945 11.9067 238.518 14.16 237.665 17.92C236.838 21.68 236.425 24.4667 236.425 26.28C236.425 28.0933 236.838 29.3467 237.665 30.04C236.172 31.3467 234.612 32 232.985 32C231.385 32 230.212 31.52 229.465 30.56C228.745 29.6 228.385 28.1067 228.385 26.08ZM220.425 20.64C220.425 21.9467 220.692 22.96 221.225 23.68C221.785 24.3733 222.572 24.72 223.585 24.72C224.598 24.72 225.598 24.3467 226.585 23.6C227.572 22.8533 228.398 21.8267 229.065 20.52C229.305 17.8267 229.825 14.64 230.625 10.96C227.932 10.96 225.558 11.9333 223.505 13.88C221.452 15.8267 220.425 18.08 220.425 20.64ZM247.238 32C245.665 32 244.505 31.5867 243.758 30.76C243.011 29.9333 242.638 28.84 242.638 27.48C242.638 26.12 242.905 23.9067 243.438 20.84C243.998 17.7733 244.571 14.9733 245.158 12.44L243.078 9.24C245.718 7.74667 248.158 7 250.398 7C252.638 7 253.758 8.01333 253.758 10.04C253.758 11.3733 253.451 12.7333 252.838 14.12L253.238 14.32C256.091 9.44 259.718 7 264.118 7C267.345 7 268.958 8.61333 268.958 11.84C268.958 13.2267 268.558 15.5733 267.758 18.88C266.985 22.1867 266.598 24.68 266.598 26.36C266.598 28.04 266.878 29.2667 267.438 30.04C266.025 31.3467 264.531 32 262.958 32C259.891 32 258.358 30.3467 258.358 27.04C258.358 25.8133 258.758 23.7333 259.558 20.8C260.358 17.8667 260.758 15.96 260.758 15.08C260.758 13.88 260.305 13.28 259.398 13.28C258.651 13.28 257.798 13.6133 256.838 14.28C255.878 14.92 254.945 15.8 254.038 16.92C253.158 18.0133 252.411 19.4133 251.798 21.12C251.185 22.8 250.878 24.52 250.878 26.28C250.878 28.0133 251.158 29.2667 251.718 30.04C250.305 31.3467 248.811 32 247.238 32ZM276.191 6.12L273.951 2.92C277.284 0.973332 279.911 -1.43051e-06 281.831 -1.43051e-06C282.924 -1.43051e-06 283.697 0.226665 284.151 0.679999C284.604 1.10667 284.831 1.84 284.831 2.88C284.831 3.89333 284.657 5.32 284.311 7.16C283.991 9 283.551 11.1733 282.991 13.68C282.457 16.1867 282.071 18.2 281.831 19.72L284.351 17.48C284.591 17.2667 284.977 16.9333 285.511 16.48C286.071 16 286.457 15.6533 286.671 15.44C286.911 15.2267 287.231 14.9333 287.631 14.56C288.031 14.16 288.324 13.8267 288.511 13.56C288.697 13.2933 288.911 12.9867 289.151 12.64C289.524 12.0533 289.711 11.4 289.711 10.68C289.711 9.93333 289.604 9.28 289.391 8.72C291.284 7.57333 293.071 7 294.751 7C295.871 7 296.764 7.36 297.431 8.08C298.097 8.77333 298.431 9.78667 298.431 11.12C298.431 12.4533 297.817 13.8 296.591 15.16C295.391 16.4933 293.897 17.6667 292.111 18.68C292.937 21.4267 294.004 23.9467 295.311 26.24C296.617 28.5333 297.711 29.9067 298.591 30.36C297.524 31.4533 295.871 32 293.631 32C291.977 32 290.577 31.44 289.431 30.32C288.311 29.2 287.311 27.36 286.431 24.8L285.431 21.96L281.311 24C281.284 24.2933 281.271 24.7333 281.271 25.32C281.271 27.5333 281.684 29.1067 282.511 30.04C280.644 31.3467 278.951 32 277.431 32C275.911 32 274.791 31.5067 274.071 30.52C273.377 29.5067 273.031 28.12 273.031 26.36C273.031 24.6 273.524 21 274.511 15.56C275.497 10.12 276.057 6.97333 276.191 6.12Z" fill="white"/>
</svg>
