<svg width="189" height="136" viewBox="0 0 189 136" fill="none" xmlns="http://www.w3.org/2000/svg">
<circle cx="86" cy="24" r="24" fill="#2E7527"/>
<path fill-rule="evenodd" clip-rule="evenodd" d="M86 14C86.2761 14 86.5 14.2239 86.5 14.5V23.5C86.5 23.7761 86.2761 24 86 24C85.7239 24 85.5 23.7761 85.5 23.5V14.5C85.5 14.2239 85.7239 14 86 14Z" fill="white"/>
<path fill-rule="evenodd" clip-rule="evenodd" d="M93.0108 17.5751C93.2234 17.3988 93.5386 17.4282 93.7149 17.6408C95.1471 19.3679 96 21.5801 96 24C96 29.5261 91.5261 34 86 34C80.4739 34 76 29.5261 76 24C76 21.6003 76.8427 19.4101 78.2417 17.685C78.4156 17.4706 78.7305 17.4377 78.9449 17.6116C79.1594 17.7856 79.1923 18.1004 79.0183 18.3149C77.7573 19.8698 77 21.8397 77 24C77 28.9738 81.0261 33 86 33C90.9739 33 95 28.9738 95 24C95 21.8199 94.2329 19.832 92.9451 18.2791C92.7688 18.0666 92.7983 17.7514 93.0108 17.5751Z" fill="white"/>
<path d="M61.0727 64L57.8909 52.3636H59.3227L61.7545 61.8409H61.8682L64.3455 52.3636H65.9364L68.4136 61.8409H68.5273L70.9591 52.3636H72.3909L69.2091 64H67.7545L65.1864 54.7273H65.0955L62.5273 64H61.0727ZM74.5084 67.2727C74.2811 67.2727 74.0785 67.2538 73.9005 67.2159C73.7224 67.1818 73.5993 67.1477 73.5311 67.1136L73.872 65.9318C74.1978 66.0152 74.4857 66.0455 74.7357 66.0227C74.9857 66 75.2073 65.8883 75.4005 65.6875C75.5974 65.4905 75.7774 65.1705 75.9402 64.7273L76.1902 64.0455L72.963 55.2727H74.4175L76.8266 62.2273H76.9175L79.3266 55.2727H80.7811L77.0766 65.2727C76.9099 65.7235 76.7035 66.0966 76.4573 66.392C76.2111 66.6913 75.9251 66.9129 75.5993 67.0568C75.2774 67.2008 74.9137 67.2727 74.5084 67.2727ZM84.8219 56.7273V57.7273L80.981 59.1818V58.1818L84.8219 56.7273ZM83.5719 52.3636V64H82.231V52.3636H83.5719ZM88.2761 64.2045C87.7231 64.2045 87.2212 64.1004 86.7704 63.892C86.3196 63.6799 85.9617 63.375 85.6965 62.9773C85.4314 62.5758 85.2988 62.0909 85.2988 61.5227C85.2988 61.0227 85.3973 60.6174 85.5943 60.3068C85.7912 59.9924 86.0545 59.7462 86.384 59.5682C86.7136 59.3902 87.0772 59.2576 87.4749 59.1705C87.8765 59.0795 88.2799 59.0076 88.6852 58.9545C89.2155 58.8864 89.6454 58.8352 89.9749 58.8011C90.3083 58.7633 90.5507 58.7008 90.7022 58.6136C90.8575 58.5265 90.9352 58.375 90.9352 58.1591V58.1136C90.9352 57.553 90.7818 57.1174 90.4749 56.8068C90.1719 56.4962 89.7117 56.3409 89.0943 56.3409C88.4541 56.3409 87.9522 56.4811 87.5886 56.7614C87.2249 57.0417 86.9693 57.3409 86.8215 57.6591L85.5488 57.2045C85.7761 56.6742 86.0791 56.2614 86.4579 55.9659C86.8405 55.6667 87.2571 55.4583 87.7079 55.3409C88.1624 55.2197 88.6094 55.1591 89.0488 55.1591C89.3291 55.1591 89.6511 55.1932 90.0147 55.2614C90.3821 55.3258 90.7363 55.4602 91.0772 55.6648C91.4219 55.8693 91.7079 56.178 91.9352 56.5909C92.1624 57.0038 92.2761 57.5568 92.2761 58.25V64H90.9352V62.8182H90.867C90.7761 63.0076 90.6246 63.2102 90.4124 63.4261C90.2003 63.642 89.9181 63.8258 89.5659 63.9773C89.2136 64.1288 88.7837 64.2045 88.2761 64.2045ZM88.4806 63C89.0109 63 89.4579 62.8958 89.8215 62.6875C90.189 62.4792 90.4655 62.2102 90.6511 61.8807C90.8405 61.5511 90.9352 61.2045 90.9352 60.8409V59.6136C90.8784 59.6818 90.7534 59.7443 90.5602 59.8011C90.3708 59.8542 90.1511 59.9015 89.9011 59.9432C89.6549 59.9811 89.4143 60.0152 89.1795 60.0455C88.9484 60.072 88.7609 60.0947 88.617 60.1136C88.2685 60.1591 87.9428 60.233 87.6397 60.3352C87.3405 60.4337 87.0981 60.5833 86.9124 60.7841C86.7306 60.9811 86.6397 61.25 86.6397 61.5909C86.6397 62.0568 86.8121 62.4091 87.1568 62.6477C87.5053 62.8826 87.9465 63 88.4806 63ZM91.2079 67.4091C90.742 67.4091 90.3556 67.2803 90.0488 67.0227C89.7458 66.7689 89.5943 66.3977 89.5943 65.9091C89.5943 65.6288 89.6624 65.3485 89.7988 65.0682C89.9352 64.7879 90.1549 64.517 90.4579 64.2557C90.7609 63.9943 91.1624 63.75 91.6624 63.5227L92.2761 64C91.9352 64.25 91.6303 64.5152 91.3613 64.7955C91.0924 65.0758 90.9579 65.3864 90.9579 65.7273C90.9579 65.8977 90.9996 66.0303 91.0829 66.125C91.1662 66.2235 91.3215 66.2727 91.5488 66.2727C91.7193 66.2727 91.8708 66.25 92.0034 66.2045C92.1359 66.1591 92.242 66.1136 92.3215 66.0682L92.4124 67.0682C92.2874 67.1477 92.1227 67.2235 91.9181 67.2955C91.7174 67.3712 91.4806 67.4091 91.2079 67.4091ZM97.949 64.1818C97.1308 64.1818 96.4263 63.9886 95.8353 63.6023C95.2444 63.2159 94.7899 62.6837 94.4717 62.0057C94.1535 61.3277 93.9944 60.553 93.9944 59.6818C93.9944 58.7955 94.1573 58.0133 94.4831 57.3352C94.8126 56.6534 95.271 56.1212 95.8581 55.7386C96.449 55.3523 97.1384 55.1591 97.9263 55.1591C98.5399 55.1591 99.0929 55.2727 99.5853 55.5C100.078 55.7273 100.481 56.0455 100.796 56.4545C101.11 56.8636 101.305 57.3409 101.381 57.8864H100.04C99.9376 57.4886 99.7103 57.1364 99.3581 56.8295C99.0096 56.5189 98.5399 56.3636 97.949 56.3636C97.4263 56.3636 96.9679 56.5 96.574 56.7727C96.1838 57.0417 95.8789 57.4223 95.6592 57.9148C95.4433 58.4034 95.3353 58.9773 95.3353 59.6364C95.3353 60.3106 95.4414 60.8977 95.6535 61.3977C95.8694 61.8977 96.1725 62.286 96.5626 62.5625C96.9566 62.839 97.4187 62.9773 97.949 62.9773C98.2975 62.9773 98.6138 62.9167 98.8978 62.7955C99.1819 62.6742 99.4225 62.5 99.6194 62.2727C99.8164 62.0455 99.9566 61.7727 100.04 61.4545H101.381C101.305 61.9697 101.118 62.4337 100.818 62.8466C100.523 63.2557 100.131 63.5814 99.6422 63.8239C99.1573 64.0625 98.5929 64.1818 97.949 64.1818ZM102.771 64V62.9773L107.726 56.6136V56.5227H102.93V55.2727H109.453V56.3409L104.635 62.6591V62.75H109.612V64H102.771Z" fill="black"/>
</svg>
